# xmcd CD database file
#
# Track frame offsets:
#	150
#	9570
#	27638
#	35085
#	54028
#	63345
#	75748
#	89078
#	125233
#	133945
#	145335
#	158903
#	170473
#	179073
#	190373
#	199368
#	259855
#
# Disc length: 3889 seconds
#
# Revision: 5
# Processed by: cddbd v1.5.2PL0 Copyright (c) Steve Scherf et al.
# Submitted via: CDex 2.21
#
DISCID=070f2f11
DTITLE=Maria Bethania - A Arte de
DYEAR=1988
DGENRE=MPB (Brazilian Pop Music)
TTITLE0=A Tua Presenca
TTITLE1=Mariana, Mariana
TTITLE2=Dia 4 de Dezembro
TTITLE3=Pra Dizer Adeus
TTITLE4=Bom Conselho
TTITLE5=Olhe o Tempo Passando
TTITLE6=Drama
TTITLE7=Sinal Fechado/ Roda Viva/ Rosa dos Ventos/ Cala a Boca, Barbara/ Resposta/ Demoniaca
TTITLE8=Coracao Ateu
TTITLE9=Janelas Abertas No 2
TTITLE10=Bom Dia
TTITLE11=Mano Caetano
TTITLE12=Se Eu Morresse Amanha
TTITLE13=Iansa
TTITLE14=Estacio Holly Estacio
TTITLE15=Estrela do Mar /Meu Primeiro Amor/ Soneto/ Preciso Aprender a So Ser/ A Lenda do Abaete/ Oracao da Mae Menininha/ Filhos de Gandhi/ Texto de Clarice Lispector/ Luz da Noite
TTITLE16=Eu Fui a Europa/ Gas Neon/ Luzes da Ribalta/ Chao de Estrelas/ Sinal Fechado
EXTD=YEAR: 1988
EXTT0=
EXTT1=
EXTT2=
EXTT3=
EXTT4=
EXTT5=
EXTT6=
EXTT7=
EXTT8=
EXTT9=
EXTT10=
EXTT11=
EXTT12=
EXTT13=
EXTT14=
EXTT15=
EXTT16=
PLAYORDER=
